<svg width="24" height="24" viewBox="0 0 24 24" fill="none" xmlns="http://www.w3.org/2000/svg">
<path d="M14.945 1.25C13.578 1.25 12.475 1.25 11.608 1.367C10.708 1.487 9.94996 1.747 9.34796 2.348C8.82396 2.873 8.55796 3.518 8.41896 4.276C8.28396 5.013 8.25796 5.914 8.25196 6.996C8.2509 7.19491 8.3289 7.3861 8.46881 7.5275C8.60871 7.6689 8.79905 7.74894 8.99796 7.75C9.19688 7.75106 9.38806 7.67306 9.52947 7.53316C9.67087 7.39326 9.7509 7.20291 9.75196 7.004C9.75796 5.911 9.78596 5.136 9.89396 4.547C9.99896 3.981 10.166 3.652 10.409 3.409C10.686 3.132 11.075 2.952 11.809 2.853C12.564 2.752 13.565 2.75 15 2.75H16C17.436 2.75 18.437 2.752 19.192 2.853C19.926 2.952 20.314 3.133 20.592 3.409C20.868 3.686 21.048 4.074 21.147 4.809C21.249 5.563 21.25 6.565 21.25 8V16C21.25 17.435 21.249 18.436 21.147 19.192C21.048 19.926 20.868 20.314 20.591 20.591C20.314 20.868 19.926 21.048 19.192 21.147C18.437 21.248 17.436 21.25 16 21.25H15C13.565 21.25 12.564 21.248 11.808 21.147C11.075 21.048 10.686 20.867 10.409 20.591C10.166 20.347 9.99896 20.019 9.89396 19.453C9.78596 18.864 9.75796 18.089 9.75196 16.996C9.75144 16.8975 9.73152 16.8001 9.69334 16.7093C9.65517 16.6185 9.59948 16.5361 9.52947 16.4668C9.45945 16.3976 9.37648 16.3428 9.28528 16.3056C9.19409 16.2684 9.09646 16.2495 8.99796 16.25C8.89947 16.2505 8.80205 16.2704 8.71126 16.3086C8.62046 16.3468 8.53808 16.4025 8.46881 16.4725C8.39953 16.5425 8.34473 16.6255 8.30752 16.7167C8.27032 16.8079 8.25144 16.9055 8.25196 17.004C8.25796 18.086 8.28396 18.987 8.41896 19.724C8.55896 20.482 8.82396 21.127 9.34896 21.652C9.94996 22.254 10.709 22.512 11.609 22.634C12.475 22.75 13.578 22.75 14.945 22.75H16.055C17.423 22.75 18.525 22.75 19.392 22.634C20.292 22.512 21.05 22.254 21.652 21.652C22.254 21.05 22.512 20.292 22.634 19.392C22.75 18.525 22.75 17.422 22.75 16.055V7.945C22.75 6.578 22.75 5.475 22.634 4.608C22.513 3.708 22.254 2.95 21.652 2.348C21.05 1.746 20.292 1.488 19.392 1.367C18.525 1.25 17.422 1.25 16.055 1.25H14.945Z" fill="#6A06AC"/>
<path d="M2.00098 11.2494C1.80206 11.2494 1.6113 11.3284 1.47065 11.4691C1.32999 11.6097 1.25098 11.8005 1.25098 11.9994C1.25098 12.1983 1.32999 12.3891 1.47065 12.5297C1.6113 12.6704 1.80206 12.7494 2.00098 12.7494H13.974L12.013 14.4294C11.9381 14.4935 11.8766 14.5717 11.832 14.6595C11.7874 14.7474 11.7605 14.8432 11.7529 14.9414C11.7375 15.1398 11.8016 15.3362 11.931 15.4874C12.0604 15.6386 12.2446 15.7321 12.443 15.7475C12.6414 15.7629 12.8378 15.6988 12.989 15.5694L16.489 12.5694C16.5713 12.499 16.6374 12.4116 16.6827 12.3132C16.7281 12.2148 16.7515 12.1077 16.7515 11.9994C16.7515 11.8911 16.7281 11.784 16.6827 11.6856C16.6374 11.5872 16.5713 11.4998 16.489 11.4294L12.989 8.42939C12.8378 8.29996 12.6414 8.23589 12.443 8.25127C12.2446 8.26665 12.0604 8.36021 11.931 8.51139C11.8016 8.66256 11.7375 8.85896 11.7529 9.05737C11.7682 9.25578 11.8618 9.43996 12.013 9.56939L13.973 11.2494H2.00098Z" fill="#6A06AC"/>
</svg>
