<svg width="20" height="22" viewBox="0 0 20 22" fill="none" xmlns="http://www.w3.org/2000/svg">
<path d="M5.24805 9.50036C5.04913 9.50036 4.85837 9.57938 4.71772 9.72003C4.57706 9.86069 4.49805 10.0515 4.49805 10.2504C4.49805 10.4493 4.57706 10.64 4.71772 10.7807C4.85837 10.9213 5.04913 11.0004 5.24805 11.0004H17.221L15.26 12.6804C15.1852 12.7444 15.1237 12.8226 15.0791 12.9105C15.0344 12.9984 15.0075 13.0941 14.9999 13.1924C14.9845 13.3908 15.0486 13.5872 15.178 13.7384C15.3075 13.8895 15.4916 13.9831 15.6901 13.9985C15.8885 14.0139 16.0849 13.9498 16.236 13.8204L19.736 10.8204C19.8184 10.75 19.8845 10.6625 19.9298 10.5641C19.9751 10.4657 19.9986 10.3587 19.9986 10.2504C19.9986 10.142 19.9751 10.035 19.9298 9.93658C19.8845 9.83818 19.8184 9.75077 19.736 9.68036L16.236 6.68036C16.0849 6.55094 15.8885 6.48687 15.6901 6.50225C15.4916 6.51762 15.3075 6.61119 15.178 6.76236C15.0486 6.91354 14.9845 7.10993 14.9999 7.30835C15.0153 7.50676 15.1089 7.69094 15.26 7.82036L17.22 9.50036H5.24805Z" fill="#F41E1E"/>
<path d="M7.80504 21.5C9.17204 21.5 10.275 21.5 11.142 21.383C12.042 21.263 12.8 21.003 13.402 20.402C13.926 19.877 14.192 19.232 14.331 18.474C14.466 17.737 14.492 16.836 14.498 15.754C14.4991 15.5551 14.4211 15.3639 14.2812 15.2225C14.1413 15.0811 13.9509 15.0011 13.752 15C13.5531 14.9989 13.3619 15.0769 13.2205 15.2168C13.0791 15.3567 12.9991 15.5471 12.998 15.746C12.992 16.839 12.964 17.614 12.856 18.203C12.751 18.769 12.584 19.098 12.341 19.341C12.064 19.618 11.675 19.798 10.941 19.897C10.186 19.998 9.18504 20 7.75004 20H6.75004C5.31404 20 4.31304 19.998 3.55804 19.897C2.82404 19.798 2.43604 19.617 2.15804 19.341C1.88204 19.064 1.70204 18.676 1.60304 17.941C1.50104 17.187 1.50004 16.185 1.50004 14.75V6.75C1.50004 5.315 1.50104 4.314 1.60304 3.558C1.70204 2.824 1.88204 2.436 2.15904 2.159C2.43604 1.882 2.82404 1.702 3.55804 1.603C4.31304 1.502 5.31404 1.5 6.75004 1.5H7.75004C9.18504 1.5 10.186 1.502 10.942 1.603C11.675 1.702 12.064 1.883 12.341 2.159C12.584 2.403 12.751 2.731 12.856 3.297C12.964 3.886 12.992 4.661 12.998 5.754C12.9986 5.85249 13.0185 5.94992 13.0567 6.04071C13.0948 6.1315 13.1505 6.21389 13.2205 6.28316C13.2905 6.35243 13.3735 6.40724 13.4647 6.44444C13.5559 6.48165 13.6535 6.50053 13.752 6.5C13.8505 6.49947 13.948 6.47956 14.0387 6.44138C14.1295 6.4032 14.2119 6.34752 14.2812 6.2775C14.3505 6.20749 14.4053 6.12451 14.4425 6.03332C14.4797 5.94212 14.4986 5.84449 14.498 5.746C14.492 4.664 14.466 3.763 14.331 3.026C14.191 2.268 13.926 1.623 13.401 1.098C12.8 0.496 12.041 0.237999 11.141 0.115999C10.275 -7.7486e-07 9.17204 0 7.80504 0H6.69504C5.32704 0 4.22504 -7.7486e-07 3.35804 0.115999C2.45804 0.237999 1.70004 0.496 1.09804 1.098C0.496036 1.7 0.238035 2.458 0.116035 3.358C3.54648e-05 4.225 3.62396e-05 5.328 3.62396e-05 6.695V14.805C3.62396e-05 16.172 3.54648e-05 17.275 0.116035 18.142C0.237035 19.042 0.496036 19.8 1.09804 20.402C1.70004 21.004 2.45804 21.262 3.35804 21.383C4.22504 21.5 5.32804 21.5 6.69504 21.5H7.80504Z" fill="#F41E1E"/>
</svg>
