<svg width="24" height="24" viewBox="0 0 24 24" fill="none" xmlns="http://www.w3.org/2000/svg">
<g clip-path="url(#clip0_136_15496)">
<path d="M24 4C24 3.20435 23.6839 2.44129 23.1213 1.87868C22.5587 1.31607 21.7956 1 21 1H20.23C20.1414 0.999247 20.0545 0.975888 19.9775 0.932136C19.9005 0.888385 19.836 0.825692 19.79 0.75C19.6599 0.522616 19.4721 0.333555 19.2457 0.201881C19.0192 0.070206 18.762 0.000572084 18.5 0L4 0C3.60218 0 3.22064 0.158035 2.93934 0.43934C2.65804 0.720644 2.5 1.10218 2.5 1.5V2.25C2.5 2.3163 2.52634 2.37989 2.57322 2.42678C2.62011 2.47366 2.6837 2.5 2.75 2.5H4C4.26522 2.5 4.51957 2.60536 4.70711 2.79289C4.89464 2.98043 5 3.23478 5 3.5C5 3.76522 4.89464 4.01957 4.70711 4.20711C4.51957 4.39464 4.26522 4.5 4 4.5H1C0.734784 4.5 0.48043 4.60536 0.292893 4.79289C0.105357 4.98043 0 5.23478 0 5.5C0 5.76522 0.105357 6.01957 0.292893 6.20711C0.48043 6.39464 0.734784 6.5 1 6.5H2.29C2.3563 6.5 2.41989 6.52634 2.46678 6.57322C2.51366 6.62011 2.54 6.6837 2.54 6.75V9.75C2.54 9.8163 2.56634 9.87989 2.61322 9.92678C2.66011 9.97366 2.7237 10 2.79 10H4C4.26522 10 4.51957 10.1054 4.70711 10.2929C4.89464 10.4804 5 10.7348 5 11C5 11.2652 4.89464 11.5196 4.70711 11.7071C4.51957 11.8946 4.26522 12 4 12H1C0.734784 12 0.48043 12.1054 0.292893 12.2929C0.105357 12.4804 0 12.7348 0 13C0 13.2652 0.105357 13.5196 0.292893 13.7071C0.48043 13.8946 0.734784 14 1 14H2.29C2.3563 14 2.41989 14.0263 2.46678 14.0732C2.51366 14.1201 2.54 14.1837 2.54 14.25V17.25C2.54 17.3163 2.56634 17.3799 2.61322 17.4268C2.66011 17.4737 2.7237 17.5 2.79 17.5H4C4.26522 17.5 4.51957 17.6054 4.70711 17.7929C4.89464 17.9804 5 18.2348 5 18.5C5 18.7652 4.89464 19.0196 4.70711 19.2071C4.51957 19.3946 4.26522 19.5 4 19.5H1C0.734784 19.5 0.48043 19.6054 0.292893 19.7929C0.105357 19.9804 0 20.2348 0 20.5C0 20.7652 0.105357 21.0196 0.292893 21.2071C0.48043 21.3946 0.734784 21.5 1 21.5H2.29C2.3563 21.5 2.41989 21.5263 2.46678 21.5732C2.51366 21.6201 2.54 21.6837 2.54 21.75V22.5C2.53986 22.891 2.69239 23.2666 2.9651 23.5468C3.23782 23.8269 3.60915 23.9896 4 24H18.5C18.762 23.9994 19.0192 23.9298 19.2457 23.7981C19.4721 23.6664 19.6599 23.4774 19.79 23.25C19.836 23.1743 19.9005 23.1116 19.9775 23.0679C20.0545 23.0241 20.1414 23.0008 20.23 23H21C21.7956 23 22.5587 22.6839 23.1213 22.1213C23.6839 21.5587 24 20.7956 24 20V4ZM15.21 8C15.21 8.39782 15.052 8.77936 14.7707 9.06066C14.4894 9.34196 14.1078 9.5 13.71 9.5H9.5C9.10218 9.5 8.72064 9.34196 8.43934 9.06066C8.15804 8.77936 8 8.39782 8 8V5.5C8 5.10218 8.15804 4.72064 8.43934 4.43934C8.72064 4.15804 9.10218 4 9.5 4H13.71C14.1078 4 14.4894 4.15804 14.7707 4.43934C15.052 4.72064 15.21 5.10218 15.21 5.5V8ZM22 10.75C22 10.8163 21.9737 10.8799 21.9268 10.9268C21.8799 10.9737 21.8163 11 21.75 11H20.25C20.1837 11 20.1201 10.9737 20.0732 10.9268C20.0263 10.8799 20 10.8163 20 10.75V8.25C20 8.1837 20.0263 8.12011 20.0732 8.07322C20.1201 8.02634 20.1837 8 20.25 8H21.75C21.8163 8 21.8799 8.02634 21.9268 8.07322C21.9737 8.12011 22 8.1837 22 8.25V10.75ZM20 13.25C20 13.1837 20.0263 13.1201 20.0732 13.0732C20.1201 13.0263 20.1837 13 20.25 13H21.75C21.8163 13 21.8799 13.0263 21.9268 13.0732C21.9737 13.1201 22 13.1837 22 13.25V15.75C22 15.8163 21.9737 15.8799 21.9268 15.9268C21.8799 15.9737 21.8163 16 21.75 16H20.25C20.1837 16 20.1201 15.9737 20.0732 15.9268C20.0263 15.8799 20 15.8163 20 15.75V13.25ZM22 4V5.75C22 5.8163 21.9737 5.87989 21.9268 5.92678C21.8799 5.97366 21.8163 6 21.75 6H20.25C20.1837 6 20.1201 5.97366 20.0732 5.92678C20.0263 5.87989 20 5.8163 20 5.75V3.25C20 3.1837 20.0263 3.12011 20.0732 3.07322C20.1201 3.02634 20.1837 3 20.25 3H21C21.2652 3 21.5196 3.10536 21.7071 3.29289C21.8946 3.48043 22 3.73478 22 4ZM22 20C22 20.2652 21.8946 20.5196 21.7071 20.7071C21.5196 20.8946 21.2652 21 21 21H20.25C20.1837 21 20.1201 20.9737 20.0732 20.9268C20.0263 20.8799 20 20.8163 20 20.75V18.25C20 18.1837 20.0263 18.1201 20.0732 18.0732C20.1201 18.0263 20.1837 18 20.25 18H21.75C21.8163 18 21.8799 18.0263 21.9268 18.0732C21.9737 18.1201 22 18.1837 22 18.25V20Z" fill="white"/>
</g>
<defs>
<clipPath id="clip0_136_15496">
<rect width="24" height="24" fill="white"/>
</clipPath>
</defs>
</svg>
