<svg width="24" height="24" viewBox="0 0 24 24" fill="none" xmlns="http://www.w3.org/2000/svg">
<path d="M0.75 12H3.75M0.75 18H3.75M0.75 6H3.75M3.75 0.75H17.5C17.5 0.75 19 0.75 19 2.25V21.75C19 21.75 19 23.25 17.5 23.25H3.75C3.75 23.25 2.25 23.25 2.25 21.75V2.25C2.25 2.25 2.25 0.75 3.75 0.75Z" stroke="white" stroke-width="1.5" stroke-linecap="round" stroke-linejoin="round"/>
<path d="M19 7H23.25M19 12H23.25M8.25 5.25H13.5C13.5 5.25 15 5.25 15 6.75V9C15 9 15 10.5 13.5 10.5H8.25C8.25 10.5 6.75 10.5 6.75 9V6.75C6.75 6.75 6.75 5.25 8.25 5.25ZM19 16.75H21.75C22.1478 16.75 22.5294 16.592 22.8107 16.3107C23.092 16.0294 23.25 15.6478 23.25 15.25V3.75C23.25 3.35218 23.092 2.97064 22.8107 2.68934C22.5294 2.40804 22.1478 2.25 21.75 2.25H19V16.75Z" stroke="white" stroke-width="1.5" stroke-linecap="round" stroke-linejoin="round"/>
</svg>
