<svg width="18" height="18" viewBox="0 0 18 18" fill="none" xmlns="http://www.w3.org/2000/svg">
<g clip-path="url(#clip0_136_15472)">
<path d="M8.95 8.6498C10.3 8.6498 11.35 7.5498 11.35 6.1998C11.35 4.8498 10.25 3.7998 8.9 3.7998C7.55 3.7998 6.5 4.8998 6.5 6.1998C6.5 7.5498 7.6 8.6498 8.95 8.6498ZM8.9 4.7998C8.95 4.7998 8.95 4.7998 8.9 4.7998C9.7 4.7998 10.35 5.4498 10.35 6.2498C10.35 7.0498 9.7 7.6498 8.9 7.6498C8.1 7.6498 7.5 6.9998 7.5 6.2498C7.5 5.4498 8.15 4.7998 8.9 4.7998Z" fill="white"/>
<path d="M16.35 8.35044C15.4 7.50044 14.15 7.05044 12.85 7.10044H12.45C12.35 7.50044 12.2 7.85044 12 8.15044C12.3 8.10044 12.55 8.10044 12.85 8.10044C13.8 8.05044 14.75 8.35044 15.5 8.90044V12.5004H16.5V8.50044L16.35 8.35044Z" fill="white"/>
<path d="M11.7 3.90039C11.95 3.30039 12.65 3.00039 13.3 3.25039C13.9 3.50039 14.2 4.20039 13.95 4.85039C13.75 5.30039 13.3 5.60039 12.85 5.60039C12.75 5.60039 12.6 5.60039 12.5 5.55039C12.55 5.80039 12.55 6.05039 12.55 6.25039V6.55039C12.65 6.55039 12.75 6.60039 12.85 6.60039C14.1 6.60039 15.1 5.60039 15.1 4.40039C15.1 3.15039 14.1 2.15039 12.9 2.15039C12.1 2.15039 11.4 2.55039 11 3.25039C11.25 3.40039 11.5 3.60039 11.7 3.90039Z" fill="white"/>
<path d="M6 8.20025C5.8 7.90025 5.65 7.55025 5.55 7.15025H5.15C3.85 7.10025 2.6 7.55025 1.65 8.35025L1.5 8.50025V12.5003H2.5V8.90025C3.3 8.35025 4.2 8.05025 5.15 8.10025C5.45 8.10025 5.75 8.15025 6 8.20025Z" fill="white"/>
<path d="M5.14988 6.55008C5.24988 6.55008 5.34988 6.55008 5.44988 6.50008V6.20008C5.44988 5.95008 5.44988 5.70008 5.49988 5.50008C5.39988 5.55008 5.24988 5.55008 5.14988 5.55008C4.49988 5.55008 3.94988 5.00008 3.94988 4.35008C3.94988 3.70008 4.49988 3.15008 5.14988 3.15008C5.64988 3.15008 6.09988 3.45008 6.29988 3.90008C6.49988 3.65008 6.79988 3.40008 7.04988 3.20008C6.39988 2.15008 5.04988 1.80008 3.99988 2.45008C2.94988 3.10008 2.59988 4.45008 3.24988 5.50008C3.64988 6.15008 4.34988 6.55008 5.14988 6.55008Z" fill="white"/>
<path d="M13.05 11.3498L12.95 11.1998C11.95 10.0998 10.55 9.44976 9.05 9.49976C7.55 9.44976 6.1 10.0998 5.1 11.1998L5 11.3498V15.1498C5 15.5998 5.35 15.9998 5.85 15.9998H12.25C12.7 15.9998 13.1 15.5998 13.1 15.1498V11.3498H13.05ZM12.05 14.9998H6V11.6998C6.8 10.8998 7.9 10.4998 9.05 10.4998C10.15 10.4498 11.25 10.8998 12.05 11.6998V14.9998Z" fill="white"/>
</g>
<defs>
<clipPath id="clip0_136_15472">
<rect width="18" height="18" fill="white"/>
</clipPath>
</defs>
</svg>
