<svg width="24" height="24" viewBox="0 0 24 24" fill="none" xmlns="http://www.w3.org/2000/svg">
<path d="M6.00006 8.44C5.98006 13.54 11.1701 17.62 11.3901 17.79C11.5701 17.93 11.7901 18 12.0001 18C12.2101 18 12.4301 17.93 12.6101 17.79C12.8301 17.62 18.0201 13.54 18.0001 8.44C18.0001 4.89 15.3101 2 12.0001 2C8.69006 2 6.00006 4.89 6.00006 8.44ZM16.0001 8.44C16.0101 11.63 13.2601 14.52 12.0001 15.68C10.7401 14.53 7.99006 11.64 8.00006 8.44C8.00006 5.99 9.79006 4 12.0001 4C14.2101 4 16.0001 5.99 16.0001 8.44Z" fill="#6A06AC"/>
<path d="M12 6C11.4696 6 10.9609 6.21071 10.5858 6.58579C10.2107 6.96086 10 7.46957 10 8C10 8.53043 10.2107 9.03914 10.5858 9.41421C10.9609 9.78929 11.4696 10 12 10C12.5304 10 13.0391 9.78929 13.4142 9.41421C13.7893 9.03914 14 8.53043 14 8C14 7.46957 13.7893 6.96086 13.4142 6.58579C13.0391 6.21071 12.5304 6 12 6ZM18.02 14.73C17.62 15.37 17.18 15.96 16.75 16.49C18.88 16.97 20 17.68 20 18C20 18.51 17.25 20 12 20C6.75 20 4 18.51 4 18C4 17.68 5.12 16.97 7.25 16.49C6.82 15.96 6.39 15.37 5.98 14.73C3.66 15.37 2 16.44 2 18C2 20.75 7.18 22 12 22C16.82 22 22 20.75 22 18C22 16.44 20.33 15.37 18.02 14.73Z" fill="#6A06AC"/>
</svg>
