<svg width="150" height="25" viewBox="0 0 150 25" fill="none" xmlns="http://www.w3.org/2000/svg">
<path d="M20.0399 15.2333C19.8973 12.272 19.7263 8.6843 19.7548 5.58066H19.6693C18.8996 8.37108 17.9589 11.4747 16.9327 14.379L13.5975 24.3449H10.3193L7.24058 14.5214C6.35689 11.5886 5.53021 8.45651 4.90307 5.58066H4.84606C4.76054 8.5704 4.61801 12.215 4.44697 15.3756L3.93386 24.6296H0L1.53934 1.6228H7.06954L10.0912 10.8768C10.9179 13.5818 11.6305 16.3153 12.2007 18.8779H12.3147C12.9418 16.3722 13.7115 13.5533 14.5952 10.8483L17.7879 1.6228H23.2611L24.6009 24.6296H20.4675L20.0399 15.2333Z" fill="url(#paint0_linear_141_373)"/>
<path d="M31.8426 17.4828C31.9566 20.501 34.2942 21.7823 36.9737 21.7823C38.9122 21.7823 40.3375 21.4976 41.5917 21.042L42.2189 23.9463C40.7936 24.5158 38.7981 24.9714 36.4036 24.9714C31.0159 24.9714 27.8232 21.6684 27.8232 16.5716C27.8232 11.9589 30.6169 7.63086 35.9475 7.63086C41.3352 7.63086 43.1311 12.0728 43.1311 15.7174C43.1311 16.5147 43.0741 17.1126 42.9886 17.4828H31.8426ZM39.1687 14.55C39.1972 13.0124 38.5131 10.4782 35.7195 10.4782C33.1254 10.4782 32.0137 12.8416 31.8426 14.55H39.1687Z" fill="#5F439B"/>
<path d="M51.3398 3.24585V8.00097H55.3306V11.1331H51.3398V18.4793C51.3398 20.5009 51.8814 21.5545 53.5062 21.5545C54.2189 21.5545 54.7605 21.4406 55.1596 21.3552L55.2166 24.5727C54.5895 24.8005 53.5062 24.9713 52.1664 24.9713C50.6271 24.9713 49.3158 24.4588 48.5461 23.6046C47.6625 22.6365 47.2349 21.1558 47.2349 18.9634V11.1331H44.8403V8.00097H47.2349V4.24243L51.3398 3.24585Z" fill="#5F439B"/>
<path d="M58.5244 13.3541C58.5244 11.1047 58.4959 9.48165 58.3818 8.00102H62.0306L62.1732 11.1901H62.3157C63.1424 8.82676 65.0808 7.63086 66.8482 7.63086C67.2473 7.63086 67.5038 7.65933 67.8459 7.74475V11.6741C67.5038 11.6172 67.1333 11.5318 66.6201 11.5318C64.5962 11.5318 63.2279 12.8416 62.8573 14.7208C62.8003 15.091 62.7148 15.5466 62.7148 16.0306V24.6297H58.5244V13.3541Z" fill="#5F439B"/>
<path d="M75.1695 3.35979C75.1695 4.61264 74.2573 5.60922 72.775 5.60922C71.3782 5.60922 70.4375 4.61264 70.4375 3.35979C70.4375 2.05 71.3782 1.08189 72.8035 1.08189C74.2573 1.05342 75.141 2.05 75.1695 3.35979ZM70.6941 24.6297V8.00102H74.9415V24.6297H70.6941Z" fill="#5F439B"/>
<path d="M91.705 24.1172C90.8213 24.5158 89.0824 24.9714 86.973 24.9714C81.7848 24.9714 78.3926 21.6684 78.3926 16.5147C78.3926 11.5318 81.8133 7.63086 87.6571 7.63086C89.1964 7.63086 90.7643 7.97254 91.7335 8.42812L90.9923 11.5602C90.3082 11.247 89.3105 10.9053 87.7996 10.9053C84.5784 10.9053 82.6685 13.2687 82.697 16.2869C82.697 19.7037 84.9205 21.6399 87.7996 21.6399C89.282 21.6399 90.3082 21.3267 91.1064 20.985L91.705 24.1172Z" fill="#5F439B"/>
<path d="M99.2009 1.59448V24.6013H94.9819V1.59448H99.2009Z" fill="url(#paint1_linear_141_373)"/>
<path d="M104.049 12.9555C104.049 11.0477 104.02 9.42471 103.906 8.00102H107.612L107.812 10.5067H107.926C108.638 9.19692 110.463 7.63086 113.228 7.63086C116.135 7.63086 119.157 9.51013 119.157 14.7778V24.6582H114.938V15.2618C114.938 12.87 114.054 11.0477 111.745 11.0477C110.064 11.0477 108.895 12.2436 108.467 13.4965C108.325 13.8666 108.296 14.3791 108.296 14.8632V24.6297H104.049V12.9555Z" fill="url(#paint2_linear_141_373)"/>
<path d="M124.087 24.6298V11.1332H121.835V8.00113H124.087V7.26081C124.087 5.0968 124.657 2.96127 126.111 1.59453C127.337 0.45558 129.019 0 130.472 0C131.613 0 132.496 0.170843 133.18 0.398633L132.838 3.64464C132.382 3.4738 131.812 3.33143 131.071 3.33143C128.99 3.3599 128.277 5.0968 128.277 7.14691V8.00113H131.926V11.1332H128.306V24.6298H124.087Z" fill="url(#paint3_linear_141_373)"/>
<path d="M150.001 16.1447C150.001 22.2665 145.696 25 141.449 25C136.745 25 133.097 21.754 133.097 16.4294C133.097 10.9625 136.688 7.63103 141.706 7.63103C146.666 7.60256 150.001 11.1048 150.001 16.1447ZM137.43 16.3155C137.43 19.5331 138.997 21.9533 141.563 21.9533C143.958 21.9533 145.639 19.59 145.639 16.2586C145.639 13.6675 144.471 10.6777 141.592 10.6777C138.627 10.6777 137.43 13.5536 137.43 16.3155Z" fill="url(#paint4_linear_141_373)"/>
<defs>
<linearGradient id="paint0_linear_141_373" x1="-0.466932" y1="13.1134" x2="147.975" y2="13.1134" gradientUnits="userSpaceOnUse">
<stop stop-color="#542E90"/>
<stop offset="0.0674" stop-color="#563292"/>
<stop offset="0.1399" stop-color="#5D3F99"/>
<stop offset="0.2146" stop-color="#6755A4"/>
<stop offset="0.2685" stop-color="#7169AE"/>
<stop offset="0.2876" stop-color="#7169AE"/>
<stop offset="0.5197" stop-color="#7169AE"/>
<stop offset="0.7266" stop-color="#845BA5"/>
<stop offset="1" stop-color="#F38280"/>
</linearGradient>
<linearGradient id="paint1_linear_141_373" x1="-0.467716" y1="13.1135" x2="147.974" y2="13.1135" gradientUnits="userSpaceOnUse">
<stop stop-color="#542E90"/>
<stop offset="0.0674" stop-color="#563292"/>
<stop offset="0.1399" stop-color="#5D3F99"/>
<stop offset="0.2146" stop-color="#6755A4"/>
<stop offset="0.2685" stop-color="#7169AE"/>
<stop offset="0.2876" stop-color="#7169AE"/>
<stop offset="0.5197" stop-color="#7169AE"/>
<stop offset="0.7266" stop-color="#845BA5"/>
<stop offset="1" stop-color="#F38280"/>
</linearGradient>
<linearGradient id="paint2_linear_141_373" x1="-0.465848" y1="16.1192" x2="147.976" y2="16.1192" gradientUnits="userSpaceOnUse">
<stop stop-color="#542E90"/>
<stop offset="0.0674" stop-color="#563292"/>
<stop offset="0.1399" stop-color="#5D3F99"/>
<stop offset="0.2146" stop-color="#6755A4"/>
<stop offset="0.2685" stop-color="#7169AE"/>
<stop offset="0.2876" stop-color="#7169AE"/>
<stop offset="0.5197" stop-color="#7169AE"/>
<stop offset="0.7266" stop-color="#845BA5"/>
<stop offset="1" stop-color="#F38280"/>
</linearGradient>
<linearGradient id="paint3_linear_141_373" x1="-0.467567" y1="12.3112" x2="147.974" y2="12.3112" gradientUnits="userSpaceOnUse">
<stop stop-color="#542E90"/>
<stop offset="0.0674" stop-color="#563292"/>
<stop offset="0.1399" stop-color="#5D3F99"/>
<stop offset="0.2146" stop-color="#6755A4"/>
<stop offset="0.2685" stop-color="#7169AE"/>
<stop offset="0.2876" stop-color="#7169AE"/>
<stop offset="0.5197" stop-color="#7169AE"/>
<stop offset="0.7266" stop-color="#845BA5"/>
<stop offset="1" stop-color="#F38280"/>
</linearGradient>
<linearGradient id="paint4_linear_141_373" x1="-0.46582" y1="16.3073" x2="147.976" y2="16.3073" gradientUnits="userSpaceOnUse">
<stop stop-color="#542E90"/>
<stop offset="0.0674" stop-color="#563292"/>
<stop offset="0.1399" stop-color="#5D3F99"/>
<stop offset="0.2146" stop-color="#6755A4"/>
<stop offset="0.2685" stop-color="#7169AE"/>
<stop offset="0.2876" stop-color="#7169AE"/>
<stop offset="0.5197" stop-color="#7169AE"/>
<stop offset="0.7266" stop-color="#845BA5"/>
<stop offset="1" stop-color="#F38280"/>
</linearGradient>
</defs>
</svg>
