<svg width="21" height="20" viewBox="0 0 21 20" fill="none" xmlns="http://www.w3.org/2000/svg">
<path d="M17.425 16H14.25C13.9667 16 13.7293 15.904 13.538 15.712C13.3467 15.52 13.2507 15.2827 13.25 15C13.2493 14.7173 13.3453 14.48 13.538 14.288C13.7307 14.096 13.968 14 14.25 14H17.425L16.525 13.1C16.3417 12.9167 16.25 12.6877 16.25 12.413C16.25 12.1383 16.35 11.9007 16.55 11.7C16.7333 11.5167 16.9667 11.425 17.25 11.425C17.5333 11.425 17.7667 11.5167 17.95 11.7L20.55 14.3C20.75 14.5 20.85 14.7333 20.85 15C20.85 15.2667 20.75 15.5 20.55 15.7L17.95 18.3C17.7667 18.4833 17.5377 18.5793 17.263 18.588C16.9883 18.5967 16.7507 18.5007 16.55 18.3C16.3667 18.1167 16.275 17.8833 16.275 17.6C16.275 17.3167 16.3667 17.0833 16.55 16.9L17.425 16ZM8 8C8.55 8 9.021 7.80433 9.413 7.413C9.805 7.02167 10.0007 6.55067 10 6C9.99933 5.44933 9.80367 4.97867 9.413 4.588C9.02233 4.19733 8.55133 4.00133 8 4C7.44867 3.99867 6.978 4.19467 6.588 4.588C6.198 4.98133 6.002 5.452 6 6C5.998 6.548 6.194 7.019 6.588 7.413C6.982 7.807 7.45267 8.00267 8 8ZM0 8.2C0 5.7 0.804333 3.70833 2.413 2.225C4.02167 0.741667 5.884 0 8 0C9.2 0 10.2793 0.208333 11.238 0.625C12.1967 1.04167 13.0217 1.61667 13.713 2.35C14.4043 3.08333 14.9417 3.946 15.325 4.938C15.7083 5.93 15.925 7.00067 15.975 8.15C15.9917 8.43333 15.9043 8.671 15.713 8.863C15.5217 9.055 15.284 9.15067 15 9.15C14.716 9.14933 14.4787 9.05333 14.288 8.862C14.0973 8.67067 13.993 8.43333 13.975 8.15C13.8917 6.46667 13.2877 5.021 12.163 3.813C11.0383 2.605 9.65067 2.00067 8 2C6.31667 2 4.896 2.57933 3.738 3.738C2.58 4.89667 2.00067 6.384 2 8.2C2 9.38333 2.49167 10.7377 3.475 12.263C4.45833 13.7883 5.96667 15.484 8 17.35C8.23333 17.15 8.45433 16.95 8.663 16.75C8.87167 16.55 9.06733 16.35 9.25 16.15C9.45 15.95 9.68767 15.85 9.963 15.85C10.2383 15.85 10.4757 15.9417 10.675 16.125C10.8743 16.3083 10.9787 16.5373 10.988 16.812C10.9973 17.0867 10.9013 17.3243 10.7 17.525C10.4333 17.8083 10.1793 18.0627 9.938 18.288C9.69667 18.5133 9.49233 18.6923 9.325 18.825C9.14167 18.9917 8.93333 19.1167 8.7 19.2C8.46667 19.2833 8.23333 19.325 8 19.325C7.76667 19.325 7.53333 19.2833 7.3 19.2C7.06667 19.1167 6.85833 18.9917 6.675 18.825C6.00833 18.2083 5.28333 17.4917 4.5 16.675C3.71667 15.8583 2.99167 14.9877 2.325 14.063C1.65833 13.1383 1.10433 12.1757 0.663 11.175C0.221667 10.1743 0.000666667 9.18267 0 8.2ZM9.988 12.575C10.6127 12.2917 11.1667 11.8917 11.65 11.375C11.7333 11.2917 11.7917 11.1957 11.825 11.087C11.8583 10.9783 11.875 10.866 11.875 10.75C11.875 10.5667 11.8377 10.3957 11.763 10.237C11.6883 10.0783 11.5673 9.95767 11.4 9.875C10.8833 9.575 10.3373 9.354 9.762 9.212C9.18667 9.07 8.59933 8.99933 8 9C7.40067 9.00067 6.813 9.07167 6.237 9.213C5.661 9.35433 5.11533 9.575 4.6 9.875C4.45 9.95833 4.33333 10.075 4.25 10.225C4.16667 10.375 4.125 10.5417 4.125 10.725C4.125 10.8583 4.14167 10.9793 4.175 11.088C4.20833 11.1967 4.26667 11.2923 4.35 11.375C4.83333 11.8917 5.38767 12.2917 6.013 12.575C6.63833 12.8583 7.30067 13 8 13C8.69933 13 9.362 12.8583 9.988 12.575Z" fill="#6A06AC"/>
</svg>
