<svg width="20" height="20" viewBox="0 0 20 20" fill="none" xmlns="http://www.w3.org/2000/svg">
<path d="M18.9833 10.5482C19.0945 8.72545 18.6486 6.91198 17.7049 5.34864C16.7611 3.78529 15.3641 2.54603 13.6993 1.79542C12.0346 1.04482 10.1809 0.81839 8.38439 1.1462C6.58792 1.47402 4.93367 2.34057 3.64132 3.63077C2.34898 4.92097 1.47969 6.57379 1.1489 8.36971C0.818103 10.1656 1.04146 12.0197 1.7893 13.6857C2.53714 15.3517 3.77409 16.7508 5.33587 17.6971C6.89765 18.6435 8.71037 19.0924 10.5333 18.9842" stroke="#6A06AC" stroke-width="2" stroke-linecap="round" stroke-linejoin="round"/>
<path d="M10.0005 5V10L12.5005 12.5" stroke="#6A06AC" stroke-width="2" stroke-linecap="round" stroke-linejoin="round"/>
<path d="M17.0565 14.1113C17.0565 14.406 16.9394 14.6886 16.731 14.897C16.5226 15.1054 16.24 15.2225 15.9452 15.2225C15.6505 15.2225 15.3679 15.1054 15.1595 14.897C14.9511 14.6886 14.834 14.406 14.834 14.1113C14.834 13.8165 14.9511 13.5339 15.1595 13.3255C15.3679 13.1171 15.6505 13 15.9452 13C16.24 13 16.5226 13.1171 16.731 13.3255C16.9394 13.5339 17.0565 13.8165 17.0565 14.1113Z" stroke="#6A06AC" stroke-width="0.416723"/>
<path d="M16.5008 16.0557H15.3896C15.0212 16.0557 14.6678 16.202 14.4073 16.4625C14.1468 16.723 14.0005 17.0763 14.0005 17.4447C14.0005 17.5921 14.059 17.7334 14.1632 17.8376C14.2674 17.9418 14.4088 18.0004 14.5561 18.0004H17.3343C17.4816 18.0004 17.623 17.9418 17.7272 17.8376C17.8314 17.7334 17.8899 17.5921 17.8899 17.4447C17.8899 17.0763 17.7436 16.723 17.4831 16.4625C17.2225 16.202 16.8692 16.0557 16.5008 16.0557Z" stroke="#6A06AC" stroke-width="0.416723" stroke-linejoin="round"/>
</svg>
