<svg width="20" height="20" viewBox="0 0 20 20" fill="none" xmlns="http://www.w3.org/2000/svg">
<path d="M9.72914 6C10.79 6 11.8074 6.42143 12.5576 7.17157C13.3077 7.92172 13.7291 8.93913 13.7291 10C13.7291 11.0609 13.3077 12.0783 12.5576 12.8284C11.8074 13.5786 10.79 14 9.72914 14C8.66827 14 7.65086 13.5786 6.90071 12.8284C6.15057 12.0783 5.72914 11.0609 5.72914 10C5.72914 8.93913 6.15057 7.92172 6.90071 7.17157C7.65086 6.42143 8.66827 6 9.72914 6ZM9.72914 8C9.19871 8 8.69 8.21071 8.31493 8.58579C7.93985 8.96086 7.72914 9.46957 7.72914 10C7.72914 10.5304 7.93985 11.0391 8.31493 11.4142C8.69 11.7893 9.19871 12 9.72914 12C10.2596 12 10.7683 11.7893 11.1434 11.4142C11.5184 11.0391 11.7291 10.5304 11.7291 10C11.7291 9.46957 11.5184 8.96086 11.1434 8.58579C10.7683 8.21071 10.2596 8 9.72914 8ZM7.72914 20C7.47914 20 7.26914 19.82 7.22914 19.58L6.85914 16.93C6.22914 16.68 5.68914 16.34 5.16914 15.94L2.67914 16.95C2.45914 17.03 2.18914 16.95 2.06914 16.73L0.0691406 13.27C0.00793616 13.167 -0.0136406 13.0452 0.00844519 12.9274C0.030531 12.8096 0.0947671 12.7039 0.189141 12.63L2.29914 10.97L2.22914 10L2.29914 9L0.189141 7.37C0.0947671 7.29613 0.030531 7.19042 0.00844519 7.07263C-0.0136406 6.95484 0.00793616 6.83304 0.0691406 6.73L2.06914 3.27C2.18914 3.05 2.45914 2.96 2.67914 3.05L5.16914 4.05C5.68914 3.66 6.22914 3.32 6.85914 3.07L7.22914 0.42C7.26914 0.18 7.47914 0 7.72914 0H11.7291C11.9791 0 12.1891 0.18 12.2291 0.42L12.5991 3.07C13.2291 3.32 13.7691 3.66 14.2891 4.05L16.7791 3.05C16.9991 2.96 17.2691 3.05 17.3891 3.27L19.3891 6.73C19.5191 6.95 19.4591 7.22 19.2691 7.37L17.1591 9L17.2291 10L17.1591 11L19.2691 12.63C19.4591 12.78 19.5191 13.05 19.3891 13.27L17.3891 16.73C17.2691 16.95 16.9991 17.04 16.7791 16.95L14.2891 15.95C13.7691 16.34 13.2291 16.68 12.5991 16.93L12.2291 19.58C12.1891 19.82 11.9791 20 11.7291 20H7.72914ZM8.97914 2L8.60914 4.61C7.40914 4.86 6.34914 5.5 5.57914 6.39L3.16914 5.35L2.41914 6.65L4.52914 8.2C4.12914 9.36667 4.12914 10.6333 4.52914 11.8L2.40914 13.36L3.15914 14.66L5.58914 13.62C6.35914 14.5 7.40914 15.14 8.59914 15.38L8.96914 18H10.4891L10.8591 15.39C12.0491 15.14 13.0991 14.5 13.8691 13.62L16.2991 14.66L17.0491 13.36L14.9291 11.81C15.3291 10.64 15.3291 9.37 14.9291 8.2L17.0391 6.65L16.2891 5.35L13.8791 6.39C13.0934 5.48032 12.0275 4.85767 10.8491 4.62L10.4791 2H8.97914Z" fill="white"/>
</svg>
