<svg width="24" height="24" viewBox="0 0 24 24" fill="none" xmlns="http://www.w3.org/2000/svg">
<path fill-rule="evenodd" clip-rule="evenodd" d="M3.51444 3.51444C5.19267 1.83633 7.33082 0.693527 9.65851 0.230551C11.9862 -0.232425 14.3989 0.00521427 16.5916 0.913419C18.7842 1.82162 20.6583 3.35961 21.9769 5.33289C23.2955 7.30618 23.9993 9.62615 23.9994 11.9994C23.9994 16.6794 21.6964 19.4324 19.4674 21.4674L20.9994 22.9994L19.9994 23.9994H14.9994V18.9994L15.9994 17.9994L17.6964 19.6964C19.7504 17.8364 21.4994 15.7014 21.4994 11.9994C21.4994 10.1205 20.9423 8.28379 19.8984 6.72153C18.8545 5.15926 17.3708 3.94162 15.6349 3.22259C13.899 2.50355 11.9889 2.31542 10.1461 2.68198C8.30327 3.04854 6.61053 3.95333 5.28193 5.28193C3.95333 6.61053 3.04854 8.30327 2.68198 10.1461C2.31542 11.9889 2.50355 13.899 3.22259 15.6349C3.94162 17.3708 5.15926 18.8545 6.72153 19.8984C8.28379 20.9423 10.1205 21.4994 11.9994 21.4994V23.9994C9.62615 23.9993 7.30618 23.2955 5.33289 21.9769C3.35961 20.6583 1.82162 18.7842 0.913419 16.5916C0.00521427 14.3989 -0.232425 11.9862 0.230551 9.65851C0.693527 7.33082 1.83633 5.19267 3.51444 3.51444ZM10.2494 11.9994V4.99944H13.7494V10.2494H16.9994V13.7494H10.2494V11.9994Z" fill="#6A06AC"/>
</svg>
