<svg width="18" height="20" viewBox="0 0 18 20" fill="none" xmlns="http://www.w3.org/2000/svg">
<path d="M3.5 5.5C3.5 4.04131 4.07946 2.64236 5.11091 1.61091C6.14236 0.579463 7.54131 0 9 0C10.4587 0 11.8576 0.579463 12.8891 1.61091C13.9205 2.64236 14.5 4.04131 14.5 5.5C14.5 6.95869 13.9205 8.35764 12.8891 9.38909C11.8576 10.4205 10.4587 11 9 11C7.54131 11 6.14236 10.4205 5.11091 9.38909C4.07946 8.35764 3.5 6.95869 3.5 5.5ZM0 17C0 15.6739 0.526784 14.4021 1.46447 13.4645C2.40215 12.5268 3.67392 12 5 12H13C14.3261 12 15.5979 12.5268 16.5355 13.4645C17.4732 14.4021 18 15.6739 18 17V20H0V17Z" fill="#6A06AC"/>
</svg>
