<svg width="20" height="18" viewBox="0 0 20 18" fill="none" xmlns="http://www.w3.org/2000/svg">
<path d="M9.483 17.233C9.23833 17.233 9.02333 17.1497 8.838 16.983C8.65267 16.8177 8.56 16.5997 8.56 16.329C8.56 16.1997 8.58833 16.0563 8.645 15.899C8.70167 15.7417 8.78633 15.6067 8.899 15.494L12.582 11.812L12.03 11.26L8.353 14.942C8.23967 15.0553 8.112 15.14 7.97 15.196C7.828 15.2527 7.68367 15.281 7.537 15.281C7.27967 15.281 7.06133 15.1913 6.882 15.012C6.70267 14.8327 6.61333 14.6147 6.614 14.358C6.614 14.204 6.64533 14.0537 6.708 13.907C6.77133 13.7603 6.851 13.6387 6.947 13.542L10.63 9.86L10.083 9.313L6.401 12.991C6.301 13.091 6.17667 13.1727 6.028 13.236C5.87933 13.2993 5.73 13.3307 5.58 13.33C5.326 13.33 5.10867 13.2397 4.928 13.059C4.74733 12.8783 4.657 12.661 4.657 12.407C4.657 12.2603 4.685 12.116 4.741 11.974C4.797 11.832 4.88167 11.7043 4.995 11.591L8.447 8.139L7.895 7.593L4.449 11.045C4.353 11.141 4.23067 11.2207 4.082 11.284C3.93267 11.3467 3.78133 11.378 3.628 11.378C3.35733 11.378 3.13567 11.2917 2.963 11.119C2.791 10.947 2.705 10.7257 2.705 10.455C2.705 10.3083 2.733 10.164 2.789 10.022C2.84567 9.88 2.93033 9.75233 3.043 9.639L7.983 4.699L10.137 6.859C10.3203 7.04233 10.5273 7.172 10.758 7.248C10.9893 7.32467 11.2233 7.363 11.46 7.363C11.942 7.363 12.3447 7.20433 12.668 6.887C12.9913 6.56967 13.153 6.164 13.153 5.67C13.153 5.43667 13.108 5.20133 13.018 4.964C12.928 4.72733 12.7877 4.51333 12.597 4.322L9.949 1.674L10.929 0.694C11.149 0.478 11.4147 0.309 11.726 0.187C12.0373 0.0643331 12.3487 0.00300002 12.66 0.00300002C12.9913 0.00300002 13.3147 0.0643331 13.63 0.187C13.9453 0.309 14.2143 0.481667 14.437 0.705L18.721 4.991C18.931 5.20167 19.0973 5.45833 19.22 5.761C19.3427 6.063 19.404 6.398 19.404 6.766C19.404 7.09933 19.3417 7.41433 19.217 7.711C19.093 8.00767 18.9277 8.25933 18.721 8.466L10.3 16.893C10.192 17.001 10.0653 17.0843 9.92 17.143C9.776 17.2023 9.63067 17.232 9.484 17.232M1.89 9.693L0.855 8.658C0.571667 8.37867 0.358333 8.043 0.215 7.651C0.0716666 7.25833 0 6.875 0 6.501C0 6.10633 0.0639999 5.748 0.192 5.426C0.32 5.104 0.483333 4.84367 0.682 4.645L4.619 0.703C4.83433 0.487667 5.07433 0.316666 5.339 0.19C5.60233 0.0633332 5.89 0 6.202 0C6.53667 0 6.84333 0.0596666 7.122 0.179C7.402 0.297667 7.65733 0.472333 7.888 0.703L12.052 4.866C12.152 4.966 12.2333 5.09033 12.296 5.239C12.3587 5.38767 12.39 5.52867 12.39 5.662C12.39 5.92867 12.303 6.15267 12.129 6.334C11.9543 6.514 11.7337 6.604 11.467 6.604C11.317 6.604 11.1727 6.577 11.034 6.523C10.896 6.46833 10.7687 6.38267 10.652 6.266L7.978 3.605L1.89 9.693Z" fill="white"/>
</svg>
