<svg width="22" height="21" viewBox="0 0 22 21" fill="none" xmlns="http://www.w3.org/2000/svg">
<path d="M10 15.001L12 17.001C12.197 17.198 12.4308 17.3542 12.6882 17.4608C12.9456 17.5674 13.2214 17.6223 13.5 17.6223C13.7786 17.6223 14.0544 17.5674 14.3118 17.4608C14.5692 17.3542 14.803 17.198 15 17.001C15.197 16.804 15.3532 16.5701 15.4598 16.3128C15.5665 16.0554 15.6213 15.7796 15.6213 15.501C15.6213 15.2224 15.5665 14.9466 15.4598 14.6892C15.3532 14.4318 15.197 14.198 15 14.001" stroke="white" stroke-width="2" stroke-linecap="round" stroke-linejoin="round"/>
<path d="M13.0002 12.0005L15.5002 14.5005C15.8981 14.8983 16.4376 15.1218 17.0002 15.1218C17.5628 15.1218 18.1024 14.8983 18.5002 14.5005C18.8981 14.1027 19.1215 13.5631 19.1215 13.0005C19.1215 12.4379 18.8981 11.8983 18.5002 11.5005L14.6202 7.6205C14.0577 7.0587 13.2952 6.74314 12.5002 6.74314C11.7052 6.74314 10.9427 7.0587 10.3802 7.6205L9.50023 8.5005C9.1024 8.89833 8.56284 9.12182 8.00023 9.12182C7.43762 9.12182 6.89805 8.89833 6.50023 8.5005C6.1024 8.10268 5.87891 7.56311 5.87891 7.0005C5.87891 6.43789 6.1024 5.89833 6.50023 5.5005L9.31023 2.6905C10.2225 1.78065 11.4121 1.20106 12.6909 1.04348C13.9696 0.885897 15.2644 1.15933 16.3702 1.8205L16.8402 2.1005C17.266 2.35749 17.7723 2.44662 18.2602 2.3505L20.0002 2.0005" stroke="white" stroke-width="2" stroke-linecap="round" stroke-linejoin="round"/>
<path d="M20 1.00098L21 12.001H19M2 1.00098L1 12.001L7.5 18.501C7.89782 18.8988 8.43739 19.1223 9 19.1223C9.56261 19.1223 10.1022 18.8988 10.5 18.501C10.8978 18.1032 11.1213 17.5636 11.1213 17.001C11.1213 16.4384 10.8978 15.8988 10.5 15.501M2 2.00098H10" stroke="white" stroke-width="2" stroke-linecap="round" stroke-linejoin="round"/>
</svg>
